<svg width="46" height="46" viewBox="0 0 46 46" fill="none" xmlns="http://www.w3.org/2000/svg">
<path d="M37.0757 30.9043C34.7757 30.9043 32.8438 32.8363 32.8438 35.1363C32.8438 37.4363 34.7757 39.3683 37.0757 39.3683C39.3757 39.3683 41.3078 37.4363 41.3078 35.1363C41.3078 32.7443 39.3757 30.9043 37.0757 30.9043Z" fill="#FF6C00"/>
<path d="M9.8443 30.9043C7.5443 30.9043 5.6123 32.8363 5.6123 35.1363C5.6123 37.4363 7.5443 39.3683 9.8443 39.3683C12.1443 39.3683 14.0763 37.4363 14.0763 35.1363C14.0763 32.7443 12.2363 30.9043 9.8443 30.9043Z" fill="#FF6C00"/>
<path d="M26.312 9.16797C26.312 8.0634 25.4166 7.16797 24.312 7.16797H0.92C0.46 7.16797 0 7.53597 0 8.08797V24.304C0 25.4085 0.895431 26.304 2 26.304H24.312C25.4166 26.304 26.312 25.4085 26.312 24.304V9.16797Z" fill="#FF6C00"/>
<path d="M45.9349 23.8527C45.9198 23.8299 45.9112 23.8273 45.9057 23.8005C45.8941 23.7447 45.8133 23.6799 45.7873 23.6293C45.7737 23.6027 45.7536 23.5731 45.724 23.5435L38.824 14.8035C38.64 14.6195 38.364 14.4355 38.088 14.4355H28.98C28.52 14.4355 28.06 14.8955 28.06 15.3555V26.1435C28.06 27.2481 27.1646 28.1435 26.06 28.1435H2C0.89543 28.1435 0 29.039 0 30.1435V35.0436C0 35.5036 0.46 35.9636 0.92 35.9636H2.93866C3.44971 35.9636 3.772 35.5546 3.772 35.0436C3.772 31.7316 6.532 28.9716 9.844 28.9716C13.156 28.9716 15.916 31.7316 15.916 35.0436C15.916 35.5003 16.2957 35.9636 16.7524 35.9636H28.98H30.0787C30.5897 35.9636 30.912 35.5546 30.912 35.0436C30.912 31.7316 33.672 28.9716 36.984 28.9716C40.296 28.9716 43.056 31.7316 43.056 35.0436C43.056 35.5003 43.4357 35.9636 43.8924 35.9636H45.08C45.54 35.9636 46 35.5036 46 35.0436V24.1875C46 24.1056 46 23.9505 45.9349 23.8527ZM34.5 27.8675H32.936C32.476 27.8675 32.016 27.4075 32.016 26.9475C32.016 26.4875 32.476 26.0275 32.936 26.0275H34.5C34.96 26.0275 35.42 26.4875 35.42 26.9475C35.42 27.4075 34.96 27.8675 34.5 27.8675ZM31.992 23.2675C30.8874 23.2675 29.992 22.3721 29.992 21.2675V18.3675C29.992 17.263 30.8874 16.3675 31.992 16.3675H36.7588C37.3663 16.3675 37.9409 16.6437 38.3205 17.1182L40.6405 20.0182C41.6881 21.3277 40.7558 23.2675 39.0788 23.2675H31.992Z" fill="#FF6C00"/>
</svg>
