<svg width="46" height="46" viewBox="0 0 46 46" fill="none" xmlns="http://www.w3.org/2000/svg">
<path fill-rule="evenodd" clip-rule="evenodd" d="M42.8185 9.17188H2.99852C2.3713 9.17188 1.8002 9.42923 1.38596 9.84323V9.84182V9.84323C0.973797 10.2554 0.717493 10.8263 0.717493 11.4556V13.389H45.1048V11.4556C45.1048 10.8421 44.8612 10.2842 44.4671 9.87469L44.4335 9.84331C44.0192 9.42928 43.4482 9.17196 42.8209 9.17196L42.8185 9.17188ZM34.8796 33.8635C33.6516 32.3833 33.6668 30.2528 34.8796 28.7894C34.8137 28.784 34.7463 28.7813 34.6783 28.7813C33.9736 28.7813 33.3375 29.065 32.879 29.5235V29.5262C32.4204 29.9844 32.1366 30.6206 32.1366 31.3255C32.1366 32.0301 32.4206 32.6662 32.879 33.1246V33.1273C33.3375 33.5859 33.9736 33.8697 34.6783 33.8697C34.7456 33.8697 34.8118 33.8675 34.8772 33.8616L34.8796 33.8635ZM37.9412 28.7822C36.5831 28.7822 35.5 29.8181 35.4021 31.1561L35.4018 31.1642V31.1885V31.2129C35.366 31.9171 35.6455 32.6263 36.1446 33.1256C36.6046 33.5855 37.2414 33.8706 37.9438 33.8706C38.6484 33.8706 39.2849 33.5868 39.7431 33.1283V33.1256C40.2018 32.6672 40.4857 32.0309 40.4857 31.3263C40.4857 30.6215 40.202 29.9853 39.7431 29.527V29.5243C39.2849 29.0659 38.6484 28.7823 37.9438 28.7823L37.9412 28.7822ZM45.1022 14.821H0.714844V35.3789C0.714844 35.9924 0.9584 36.5502 1.35253 36.9598L1.38619 36.9912C1.80042 37.4052 2.37152 37.6625 2.99875 37.6625H42.8187C43.4459 37.6625 44.017 37.4052 44.4313 36.9912V36.9926V36.9912C44.8434 36.5791 45.0997 36.0081 45.0997 35.3788L45.1022 14.821ZM37.9412 27.35C39.035 27.35 40.0289 27.7952 40.7499 28.5148V28.5163V28.5177V28.5191C41.4687 29.2397 41.913 30.2325 41.913 31.326C41.913 32.4198 41.4679 33.4136 40.7481 34.1345V34.136V34.1374V34.1388C40.0274 34.8576 39.0344 35.3019 37.9412 35.3019C37.3595 35.3019 36.8069 35.1769 36.3089 34.9522C36.1161 35.039 35.916 35.111 35.7099 35.1659C35.379 35.2544 35.0337 35.302 34.6807 35.302C33.5867 35.302 32.5928 34.857 31.872 34.1372V34.1357V34.1343V34.1322C31.1532 33.4116 30.709 32.4186 30.709 31.3255C30.709 30.2313 31.154 29.2375 31.8739 28.5169V28.5154V28.514V28.5126C32.5946 27.7937 33.5875 27.3495 34.6808 27.3495C35.0337 27.3495 35.3789 27.3968 35.7101 27.4855C35.9167 27.5405 36.1174 27.6127 36.3104 27.6998C36.8086 27.4747 37.3608 27.3494 37.9413 27.3494L37.9412 27.35ZM24.7918 25.5257C25.1871 25.5257 25.5078 25.8465 25.5078 26.2419C25.5078 26.637 25.1871 26.9579 24.7918 26.9579H5.44701C5.05153 26.9579 4.73086 26.637 4.73086 26.2419C4.73086 25.8465 5.05153 25.5257 5.44701 25.5257H24.7918Z" fill="#FF6C00"/>
</svg>
