<svg width="46" height="46" viewBox="0 0 46 46" fill="none" xmlns="http://www.w3.org/2000/svg">
<path d="M42.7059 28.2813C43.1848 26.4899 46 24.9427 46 23C46 21.0573 43.1848 19.5101 42.7064 17.7187C42.2111 15.8649 43.8605 13.1207 42.9216 11.4974C41.9689 9.85116 38.7586 9.91402 37.4225 8.57747C36.0865 7.24142 36.1494 4.03113 34.5026 3.07842C32.8793 2.13951 30.1351 3.78887 28.2813 3.2936C26.4899 2.8152 24.9427 0 23 0C21.0573 0 19.5101 2.8152 17.7187 3.2936C15.8649 3.78887 13.1207 2.13951 11.4974 3.07842C9.85116 4.03113 9.91402 7.24142 8.57747 8.57747C7.24142 9.91351 4.03113 9.85065 3.07842 11.4974C2.13951 13.1207 3.78887 15.8649 3.2936 17.7187C2.8152 19.5101 0 21.0573 0 23C0 24.9427 2.8152 26.4899 3.2936 28.2813C3.78887 30.1351 2.13951 32.8793 3.07842 34.5026C4.03113 36.1488 7.24142 36.086 8.57747 37.4225C9.91351 38.7586 9.85065 41.9689 11.4974 42.9216C13.1207 43.8605 15.8649 42.2111 17.7187 42.7064C19.5101 43.1848 21.0573 46 23 46C24.9427 46 26.4899 43.1848 28.2813 42.7064C30.1351 42.2111 32.8793 43.8605 34.5026 42.9216C36.1488 41.9689 36.086 38.7586 37.4225 37.4225C38.7586 36.0865 41.9689 36.1494 42.9216 34.5026C43.8605 32.8793 42.2106 30.1351 42.7059 28.2813ZM20.7367 30.1119C20.3457 30.5053 19.7091 30.5053 19.3181 30.1119L14.1979 24.9597C13.8103 24.5697 13.8103 23.9399 14.1979 23.5499L15.9597 21.777C16.3507 21.3836 16.9871 21.3835 17.3782 21.7768L20.1199 24.5344L28.7144 15.8879C29.1054 15.4945 29.7419 15.4946 30.1329 15.888L31.802 17.5673C32.1896 17.9573 32.1896 18.5871 31.802 18.9772L20.7367 30.1119Z" fill="#FF6C00"/>
</svg>
