<svg width="169" height="40" viewBox="0 0 169 40" fill="none" xmlns="http://www.w3.org/2000/svg">
<path d="M0 10C0 4.47715 4.47715 0 10 0H159C164.523 0 169 4.47715 169 10V30C169 35.5228 164.523 40 159 40H10C4.47716 40 0 35.5228 0 30V10Z" fill="#F7F8FA"/>
<path d="M10.1819 17.345C10.0472 17.0952 9.98484 16.8128 10.0017 16.5295C10.0186 16.2462 10.1141 15.9732 10.2775 15.7412C10.5446 15.3494 10.9022 15.0278 11.32 14.8037L16.0082 12.3637C16.4689 12.1241 16.9807 11.999 17.5 11.999C18.0194 11.999 18.5311 12.1241 18.9919 12.3637L23.6794 14.8056C24.0973 15.0297 24.4549 15.3513 24.7219 15.7431C24.8853 15.9751 24.9808 16.2481 24.9977 16.5314C25.0146 16.8147 24.9522 17.0971 24.8175 17.3468C24.6725 17.6211 24.4551 17.8504 24.1888 18.0096C23.9226 18.1688 23.6178 18.252 23.3075 18.25H11.6925C11.382 18.2519 11.0769 18.1685 10.8105 18.009C10.5441 17.8494 10.3267 17.6197 10.1819 17.345ZM24.375 25.75C24.375 25.4185 24.2433 25.1005 24.0089 24.8661C23.7745 24.6317 23.4566 24.5 23.125 24.5V19.5H21.875V24.5H20V19.5H18.75V24.5H16.25V19.5H15V24.5H13.125V19.5H11.875V24.5C11.5435 24.5 11.2256 24.6317 10.9911 24.8661C10.7567 25.1005 10.625 25.4185 10.625 25.75C10.4593 25.75 10.3003 25.8158 10.1831 25.933C10.0659 26.0502 10 26.2092 10 26.375C10 26.5407 10.0659 26.6997 10.1831 26.8169C10.3003 26.9341 10.4593 27 10.625 27H24.375C24.5408 27 24.6998 26.9341 24.817 26.8169C24.9342 26.6997 25 26.5407 25 26.375C25 26.2092 24.9342 26.0502 24.817 25.933C24.6998 25.8158 24.5408 25.75 24.375 25.75Z" fill="#7C7C7C"/>
<path d="M36.0568 24H39.3295C41.2045 24 42.2273 22.9432 42.2273 21.4261C42.2273 19.9091 41.2045 18.9375 39.3295 18.9375H37.1136V16.2102H41.3239V15.2727H36.0568V24ZM37.1136 23.0795V19.875H39.3295C40.5227 19.875 41.1875 20.5739 41.1875 21.4091C41.1875 22.2614 40.5227 23.0795 39.3295 23.0795H37.1136ZM46.5749 24.1364C47.9045 24.1364 48.8761 23.4716 49.1829 22.483L48.2113 22.2102C47.9556 22.892 47.3633 23.233 46.5749 23.233C45.3945 23.233 44.5806 22.4702 44.5337 21.0682H49.2852V20.642C49.2852 18.2045 47.8363 17.3693 46.4727 17.3693C44.6999 17.3693 43.5238 18.767 43.5238 20.7784C43.5238 22.7898 44.6829 24.1364 46.5749 24.1364ZM44.5337 20.1989C44.6019 19.1804 45.3221 18.2727 46.4727 18.2727C47.5636 18.2727 48.2624 19.0909 48.2624 20.1989H44.5337ZM50.4059 22.3295C50.44 23.4034 51.467 24.1364 52.8604 24.1364C54.2923 24.1364 55.332 23.3693 55.332 22.1761C55.332 21.358 54.842 20.6932 54.1048 20.642V20.5739C54.7269 20.3821 55.1957 19.9304 55.1957 19.1932C55.1957 18.1577 54.3093 17.3693 52.9286 17.3693C51.565 17.3693 50.5934 18.1193 50.5593 19.1761H51.6161C51.646 18.6349 52.2127 18.2557 52.9798 18.2557C53.7425 18.2557 54.1729 18.6435 54.1729 19.2273C54.1729 19.7727 53.7979 20.1818 52.9968 20.1818H51.8718V21.0852H52.9968C53.7979 21.0852 54.3093 21.5241 54.3093 22.1761C54.3093 22.9219 53.6488 23.233 52.8434 23.233C52.055 23.233 51.5266 22.9219 51.4798 22.3295H50.4059ZM57.7504 17.4545H56.7447V24H57.7504V21.2045H60.8867V24H61.8924V17.4545H60.8867V20.267H57.7504V17.4545ZM65.6552 24.1534C66.7972 24.1534 67.3938 23.5398 67.5984 23.1136H67.6495V24H68.6552V19.6875C68.6552 17.608 67.07 17.3693 66.2347 17.3693C65.2461 17.3693 64.1211 17.7102 63.6097 18.9034L64.5643 19.2443C64.7859 18.767 65.31 18.2557 66.2688 18.2557C67.1935 18.2557 67.6495 18.7457 67.6495 19.5852V19.6193C67.6495 20.1051 67.1552 20.0625 65.962 20.2159C64.7475 20.3736 63.4222 20.642 63.4222 22.142C63.4222 23.4205 64.4109 24.1534 65.6552 24.1534ZM65.8086 23.25C65.0075 23.25 64.4279 22.892 64.4279 22.1932C64.4279 21.4261 65.1268 21.1875 65.9109 21.0852C66.337 21.0341 67.479 20.9148 67.6495 20.7102V21.6307C67.6495 22.4489 67.0018 23.25 65.8086 23.25ZM69.9112 24H70.2521C71.701 24 72.1186 22.875 72.2124 20.7273L72.3146 18.392H74.718V24H75.7237V17.4545H71.3601L71.2408 20.3523C71.1555 22.5511 70.9339 23.0625 70.1499 23.0625H69.9112V24ZM78.5746 22.517V17.4545H77.5689V24H78.745L81.8814 18.9375V24H82.8871V17.4545H81.728L78.5746 22.517ZM89.7745 17.4545H88.7688V20.7741C88.283 20.9148 87.7844 21 87.1836 21C86.3654 21 85.7347 20.5398 85.7347 19.5341V17.4375H84.729V19.5341C84.729 21.1364 85.7006 21.9375 87.1836 21.9375C87.8015 21.9375 88.2958 21.8565 88.7688 21.7159V24H89.7745V17.4545ZM92.6254 17.4545H91.6197V24H92.6254V21.2045H95.7617V24H96.7674V17.4545H95.7617V20.267H92.6254V17.4545ZM99.6097 19.8239V17.4545H98.604V24H101.348C102.882 24 103.718 23.0625 103.718 21.8864C103.718 20.6932 102.882 19.8239 101.348 19.8239H99.6097ZM104.757 24H105.763V17.4545H104.757V24ZM99.6097 20.7614H101.348C102.145 20.7614 102.712 21.2472 102.712 21.9375C102.712 22.598 102.145 23.0625 101.348 23.0625H99.6097V20.7614ZM108.61 22.517V17.4545H107.604V24H108.78L111.917 18.9375V24H112.922V17.4545H111.763L108.61 22.517ZM111.098 15.2727C111.098 15.7159 110.86 16.108 110.263 16.108C109.667 16.108 109.445 15.7159 109.445 15.2727H108.507C108.507 16.1932 109.189 16.8409 110.263 16.8409C111.354 16.8409 112.036 16.1932 112.036 15.2727H111.098ZM118.139 26.4545H119.145V22.9943H119.23C119.452 23.3523 119.878 24.1364 121.139 24.1364C122.776 24.1364 123.918 22.8239 123.918 20.7443C123.918 18.6818 122.776 17.3693 121.122 17.3693C119.844 17.3693 119.452 18.1534 119.23 18.4943H119.111V17.4545H118.139V26.4545ZM119.128 20.7273C119.128 19.2614 119.776 18.2727 121.003 18.2727C122.281 18.2727 122.912 19.3466 122.912 20.7273C122.912 22.125 122.264 23.233 121.003 23.233C119.793 23.233 119.128 22.2102 119.128 20.7273ZM127.378 24.1534C128.52 24.1534 129.116 23.5398 129.321 23.1136H129.372V24H130.378V19.6875C130.378 17.608 128.793 17.3693 127.957 17.3693C126.969 17.3693 125.844 17.7102 125.332 18.9034L126.287 19.2443C126.509 18.767 127.033 18.2557 127.991 18.2557C128.916 18.2557 129.372 18.7457 129.372 19.5852V19.6193C129.372 20.1051 128.878 20.0625 127.685 20.2159C126.47 20.3736 125.145 20.642 125.145 22.142C125.145 23.4205 126.134 24.1534 127.378 24.1534ZM127.531 23.25C126.73 23.25 126.151 22.892 126.151 22.1932C126.151 21.4261 126.849 21.1875 127.634 21.0852C128.06 21.0341 129.202 20.9148 129.372 20.7102V21.6307C129.372 22.4489 128.724 23.25 127.531 23.25ZM134.873 24.1364C136.321 24.1364 137.276 23.25 137.446 22.0909H136.441C136.253 22.8068 135.657 23.233 134.873 23.233C133.679 23.233 132.912 22.2443 132.912 20.7273C132.912 19.2443 133.696 18.2727 134.873 18.2727C135.759 18.2727 136.287 18.8182 136.441 19.4148H137.446C137.276 18.1875 136.236 17.3693 134.855 17.3693C133.083 17.3693 131.907 18.767 131.907 20.7614C131.907 22.7216 133.032 24.1364 134.873 24.1364ZM143.962 17.4545H142.956V20.7741C142.471 20.9148 141.972 21 141.371 21C140.553 21 139.922 20.5398 139.922 19.5341V17.4375H138.917V19.5341C138.917 21.1364 139.888 21.9375 141.371 21.9375C141.989 21.9375 142.483 21.8565 142.956 21.7159V24H143.962V17.4545ZM148.551 24.1364C149.881 24.1364 150.853 23.4716 151.159 22.483L150.188 22.2102C149.932 22.892 149.34 23.233 148.551 23.233C147.371 23.233 146.557 22.4702 146.51 21.0682H151.262V20.642C151.262 18.2045 149.813 17.3693 148.449 17.3693C146.676 17.3693 145.5 18.767 145.5 20.7784C145.5 22.7898 146.659 24.1364 148.551 24.1364ZM146.51 20.1989C146.578 19.1804 147.299 18.2727 148.449 18.2727C149.54 18.2727 150.239 19.0909 150.239 20.1989H146.51ZM152.182 18.392H154.347V24H155.353V18.392H157.5V17.4545H152.182V18.392Z" fill="#7C7C7C"/>
</svg>
