<svg width="159" height="40" viewBox="0 0 159 40" fill="none" xmlns="http://www.w3.org/2000/svg">
<path d="M0 10C0 4.47715 4.47715 0 10 0H149C154.523 0 159 4.47715 159 10V30C159 35.5228 154.523 40 149 40H10C4.47715 40 0 35.5228 0 30V10Z" fill="#F7F8FA"/>
<g clip-path="url(#clip0_2711_8649)">
<path d="M31.6774 14.0804C31.6774 12.803 30.6323 11.7578 29.3548 11.7578H12.3226C11.0452 11.7578 10 12.803 10 14.0804V22.5965C10 23.8739 11.0452 24.9191 12.3226 24.9191C12.3226 26.1965 13.3677 27.2417 14.6452 27.2417H31.6774C32.9548 27.2417 34 26.1965 34 24.9191V16.403C34 15.1256 32.9548 14.0804 31.6774 14.0804ZM29.3935 25.6933H16.929C16.7355 24.0675 15.4581 22.7901 13.871 22.6352V18.6868C15.4968 18.4933 16.7742 17.2159 16.929 15.6288H29.3548C29.5484 17.2546 30.8258 18.532 32.4129 18.6868V22.5965C30.8258 22.7901 29.5484 24.0675 29.3935 25.6933ZM13.871 17.1385V16.403C13.871 15.9772 14.2194 15.6288 14.6452 15.6288H15.3806C15.2258 16.403 14.6452 16.9836 13.871 17.1385ZM32.4516 16.403V17.1385C31.6774 16.9836 31.0968 16.403 30.9419 15.6288H31.6774C32.1032 15.6288 32.4516 15.9772 32.4516 16.403ZM11.5484 22.5965V14.0804C11.5484 13.6546 11.8968 13.3062 12.3226 13.3062H29.3548C29.7806 13.3062 30.129 13.6546 30.129 14.0804H14.6452C13.3677 14.0804 12.3226 15.1256 12.3226 16.403V23.3707C11.8968 23.3707 11.5484 23.0223 11.5484 22.5965ZM13.871 24.9191V24.1836C14.6452 24.3385 15.2258 24.9191 15.3806 25.6933H14.6452C14.2194 25.6933 13.871 25.3449 13.871 24.9191ZM31.6774 25.6933H30.9419C31.0968 24.9191 31.6774 24.3385 32.4516 24.1836V24.9191C32.4516 25.3449 32.1032 25.6933 31.6774 25.6933Z" fill="#7C7C7C"/>
<path d="M23.1616 17.1768C21.2261 17.1768 19.6777 18.7251 19.6777 20.6606C19.6777 22.5961 21.2261 24.1445 23.1616 24.1445C25.0971 24.1445 26.6455 22.5961 26.6455 20.6606C26.6455 18.7251 25.0971 17.1768 23.1616 17.1768ZM23.1616 22.5961C22.0777 22.5961 21.2261 21.7445 21.2261 20.6606C21.2261 19.5768 22.0777 18.7251 23.1616 18.7251C24.2455 18.7251 25.0971 19.5768 25.0971 20.6606C25.0971 21.7445 24.2455 22.5961 23.1616 22.5961Z" fill="#7C7C7C"/>
</g>
<path d="M45.0568 24H46.1136V20.0966H50.767V24H51.8239V15.2727H50.767V19.1591H46.1136V15.2727H45.0568V24ZM55.7294 24.1534C56.8714 24.1534 57.468 23.5398 57.6726 23.1136H57.7237V24H58.7294V19.6875C58.7294 17.608 57.1442 17.3693 56.3089 17.3693C55.3203 17.3693 54.1953 17.7102 53.6839 18.9034L54.6385 19.2443C54.8601 18.767 55.3842 18.2557 56.343 18.2557C57.2678 18.2557 57.7237 18.7457 57.7237 19.5852V19.6193C57.7237 20.1051 57.2294 20.0625 56.0362 20.2159C54.8217 20.3736 53.4964 20.642 53.4964 22.142C53.4964 23.4205 54.4851 24.1534 55.7294 24.1534ZM55.8828 23.25C55.0817 23.25 54.5021 22.892 54.5021 22.1932C54.5021 21.4261 55.201 21.1875 55.9851 21.0852C56.4112 21.0341 57.5533 20.9148 57.7237 20.7102V21.6307C57.7237 22.4489 57.076 23.25 55.8828 23.25ZM59.9854 24H60.3263C61.7752 24 62.1928 22.875 62.2866 20.7273L62.3888 18.392H64.7923V24H65.7979V17.4545H61.4343L61.315 20.3523C61.2298 22.5511 61.0082 23.0625 60.2241 23.0625H59.9854V24ZM68.6488 22.517V17.4545H67.6431V24H68.8192L71.9556 18.9375V24H72.9613V17.4545H71.8022L68.6488 22.517ZM79.8487 17.4545H78.843V20.7741C78.3572 20.9148 77.8587 21 77.2578 21C76.4396 21 75.8089 20.5398 75.8089 19.5341V17.4375H74.8033V19.5341C74.8033 21.1364 75.7749 21.9375 77.2578 21.9375C77.8757 21.9375 78.37 21.8565 78.843 21.7159V24H79.8487V17.4545ZM82.6996 17.4545H81.6939V24H82.6996V21.2045H85.8359V24H86.8416V17.4545H85.8359V20.267H82.6996V17.4545ZM89.6839 19.8239V17.4545H88.6783V24H91.4226C92.9567 24 93.7919 23.0625 93.7919 21.8864C93.7919 20.6932 92.9567 19.8239 91.4226 19.8239H89.6839ZM94.8317 24H95.8374V17.4545H94.8317V24ZM89.6839 20.7614H91.4226C92.2195 20.7614 92.7862 21.2472 92.7862 21.9375C92.7862 22.598 92.2195 23.0625 91.4226 23.0625H89.6839V20.7614ZM98.6839 22.517V17.4545H97.6783V24H98.8544L101.991 18.9375V24H102.996V17.4545H101.837L98.6839 22.517ZM101.173 15.2727C101.173 15.7159 100.934 16.108 100.337 16.108C99.7408 16.108 99.5192 15.7159 99.5192 15.2727H98.5817C98.5817 16.1932 99.2635 16.8409 100.337 16.8409C101.428 16.8409 102.11 16.1932 102.11 15.2727H101.173ZM108.213 26.4545H109.219V22.9943H109.304C109.526 23.3523 109.952 24.1364 111.213 24.1364C112.85 24.1364 113.992 22.8239 113.992 20.7443C113.992 18.6818 112.85 17.3693 111.196 17.3693C109.918 17.3693 109.526 18.1534 109.304 18.4943H109.185V17.4545H108.213V26.4545ZM109.202 20.7273C109.202 19.2614 109.85 18.2727 111.077 18.2727C112.355 18.2727 112.986 19.3466 112.986 20.7273C112.986 22.125 112.338 23.233 111.077 23.233C109.867 23.233 109.202 22.2102 109.202 20.7273ZM117.452 24.1534C118.594 24.1534 119.191 23.5398 119.395 23.1136H119.446V24H120.452V19.6875C120.452 17.608 118.867 17.3693 118.032 17.3693C117.043 17.3693 115.918 17.7102 115.407 18.9034L116.361 19.2443C116.583 18.767 117.107 18.2557 118.066 18.2557C118.99 18.2557 119.446 18.7457 119.446 19.5852V19.6193C119.446 20.1051 118.952 20.0625 117.759 20.2159C116.544 20.3736 115.219 20.642 115.219 22.142C115.219 23.4205 116.208 24.1534 117.452 24.1534ZM117.605 23.25C116.804 23.25 116.225 22.892 116.225 22.1932C116.225 21.4261 116.924 21.1875 117.708 21.0852C118.134 21.0341 119.276 20.9148 119.446 20.7102V21.6307C119.446 22.4489 118.799 23.25 117.605 23.25ZM124.947 24.1364C126.396 24.1364 127.35 23.25 127.521 22.0909H126.515C126.327 22.8068 125.731 23.233 124.947 23.233C123.754 23.233 122.987 22.2443 122.987 20.7273C122.987 19.2443 123.771 18.2727 124.947 18.2727C125.833 18.2727 126.362 18.8182 126.515 19.4148H127.521C127.35 18.1875 126.31 17.3693 124.93 17.3693C123.157 17.3693 121.981 18.767 121.981 20.7614C121.981 22.7216 123.106 24.1364 124.947 24.1364ZM134.036 17.4545H133.031V20.7741C132.545 20.9148 132.046 21 131.445 21C130.627 21 129.996 20.5398 129.996 19.5341V17.4375H128.991V19.5341C128.991 21.1364 129.962 21.9375 131.445 21.9375C132.063 21.9375 132.558 21.8565 133.031 21.7159V24H134.036V17.4545ZM138.626 24.1364C139.955 24.1364 140.927 23.4716 141.234 22.483L140.262 22.2102C140.006 22.892 139.414 23.233 138.626 23.233C137.445 23.233 136.631 22.4702 136.585 21.0682H141.336V20.642C141.336 18.2045 139.887 17.3693 138.523 17.3693C136.751 17.3693 135.575 18.767 135.575 20.7784C135.575 22.7898 136.734 24.1364 138.626 24.1364ZM136.585 20.1989C136.653 19.1804 137.373 18.2727 138.523 18.2727C139.614 18.2727 140.313 19.0909 140.313 20.1989H136.585ZM142.256 18.392H144.421V24H145.427V18.392H147.575V17.4545H142.256V18.392Z" fill="#7C7C7C"/>
<defs>
<clipPath id="clip0_2711_8649">
<rect width="24" height="15.4839" fill="white" transform="translate(10 11.7578)"/>
</clipPath>
</defs>
</svg>
