<svg width="66" height="40" viewBox="0 0 66 40" fill="none" xmlns="http://www.w3.org/2000/svg">
<path d="M0.584961 10C0.584961 4.47715 5.06211 0 10.585 0H55.5806C61.1034 0 65.5806 4.47715 65.5806 10V30C65.5806 35.5228 61.1034 40 55.5806 40H10.585C5.06212 40 0.584961 35.5228 0.584961 30V10Z" fill="#F7F8FA"/>
<path d="M31.8647 19.7967V24.998H30.2031V12.1532H34.6098C35.1358 12.1423 35.6588 12.2349 36.1486 12.4258C36.6384 12.6167 37.0852 12.9019 37.4634 13.2652C37.8453 13.6064 38.1493 14.0248 38.3549 14.4924C38.5605 14.96 38.663 15.4658 38.6553 15.976C38.6663 16.4889 38.5654 16.998 38.3597 17.4686C38.1539 17.9391 37.8482 18.3599 37.4634 18.7022C36.6928 19.4319 35.7416 19.7964 34.6098 19.7957H31.8647V19.7967ZM31.8647 13.7346V18.2184H34.6511C34.9566 18.2274 35.2606 18.173 35.5437 18.0586C35.8268 17.9443 36.0827 17.7725 36.2951 17.5543C36.5064 17.3503 36.6744 17.1063 36.7891 16.8367C36.9038 16.5671 36.9629 16.2774 36.9629 15.9847C36.9629 15.692 36.9038 15.4023 36.7891 15.1327C36.6744 14.8631 36.5064 14.6191 36.2951 14.4151C36.0854 14.1923 35.8303 14.0163 35.5469 13.8988C35.2635 13.7813 34.9581 13.725 34.6511 13.7336H31.8647V13.7346Z" fill="#5F6368"/>
<path d="M42.4845 15.9229C43.7126 15.9229 44.682 16.2488 45.3927 16.9006C46.1034 17.5524 46.4585 18.4461 46.4578 19.5817V24.9981H44.8685V23.7785H44.7962C44.1082 24.7829 43.1931 25.2851 42.051 25.2851C41.0761 25.2851 40.2605 24.9981 39.6041 24.4242C39.2891 24.1608 39.0373 23.8309 38.867 23.4585C38.6967 23.0862 38.6121 22.6808 38.6196 22.272C38.6196 21.3625 38.9657 20.6393 39.6578 20.1023C40.3499 19.5653 41.2739 19.2961 42.4298 19.2947C43.4164 19.2947 44.229 19.474 44.8674 19.8327V19.4556C44.8693 19.1768 44.8087 18.9012 44.69 18.6486C44.5713 18.396 44.3975 18.1728 44.1811 17.9951C43.7417 17.6015 43.1691 17.3867 42.5774 17.3935C41.6493 17.3935 40.9148 17.7823 40.374 18.5599L38.9106 17.6446C39.7156 16.4968 40.9069 15.9229 42.4845 15.9229ZM40.3348 22.3078C40.3337 22.5178 40.3831 22.725 40.479 22.9122C40.5748 23.0994 40.7144 23.2611 40.8859 23.3839C41.2534 23.671 41.7095 23.8231 42.177 23.8144C42.8781 23.8132 43.5502 23.5361 44.0459 23.0437C44.5963 22.5292 44.8716 21.9255 44.8716 21.2327C44.3535 20.8228 43.6311 20.6178 42.7043 20.6178C42.0294 20.6178 41.4666 20.7794 41.0159 21.1026C40.5608 21.4305 40.3348 21.8292 40.3348 22.3078Z" fill="#5F6368"/>
<path d="M55.5802 16.21L50.0321 28.8723H48.3168L50.3757 24.4418L46.7275 16.21H48.5336L51.1704 22.5232H51.2065L53.7711 16.21H55.5802Z" fill="#5F6368"/>
<path d="M25.151 18.6762C25.1516 18.1733 25.1088 17.6714 25.023 17.1758H18.0156V20.0178H22.0291C21.947 20.4717 21.7732 20.9044 21.5181 21.2897C21.2631 21.6751 20.9321 22.0053 20.5451 22.2602V24.105H22.9404C24.3429 22.8208 25.151 20.9217 25.151 18.6762Z" fill="#4285F4"/>
<path d="M18.0149 25.8867C20.0202 25.8867 21.7085 25.2329 22.9397 24.1055L20.5444 22.2607C19.8777 22.7096 19.0191 22.9658 18.0149 22.9658C16.0768 22.9658 14.4318 21.6684 13.8435 19.9199H11.376V21.8211C11.9944 23.0432 12.9428 24.0706 14.1151 24.7885C15.2874 25.5065 16.6376 25.8867 18.0149 25.8867Z" fill="#34A853"/>
<path d="M13.8437 19.92C13.5327 19.0038 13.5327 18.0117 13.8437 17.0955V15.1943H11.3762C10.8559 16.2224 10.585 17.3571 10.585 18.5078C10.585 19.6584 10.8559 20.7931 11.3762 21.8212L13.8437 19.92Z" fill="#FBBC04"/>
<path d="M18.0149 14.0493C19.0746 14.0321 20.0985 14.4297 20.8654 15.1562L22.9862 13.0501C21.6414 11.7957 19.8598 11.107 18.0149 11.1284C16.6376 11.1285 15.2874 11.5087 14.1151 12.2266C12.9428 12.9446 11.9944 13.972 11.376 15.1941L13.8435 17.0952C14.4318 15.3468 16.0768 14.0493 18.0149 14.0493Z" fill="#EA4335"/>
</svg>
