<svg width="33" height="33" viewBox="0 0 33 33" fill="none" xmlns="http://www.w3.org/2000/svg">
<rect width="32" height="32" transform="translate(0.5 0.5)" fill="white"/>
<path d="M28 16.9187C28.001 16.1246 27.9334 15.3319 27.7979 14.5493H16.7324V19.0371H23.0702C22.9406 19.7539 22.6661 20.4372 22.2633 21.0458C21.8605 21.6544 21.3379 22.1756 20.7268 22.5782V25.4913H24.5093C26.724 23.4635 28 20.4646 28 16.9187Z" fill="#4285F4"/>
<path d="M16.7328 28.3061C19.8992 28.3061 22.5654 27.2736 24.5096 25.4933L20.7271 22.5802C19.6743 23.2891 18.3184 23.6937 16.7328 23.6937C13.6722 23.6937 11.0745 21.6448 10.1456 18.8838H6.24902V21.8859C7.22564 23.8158 8.72317 25.4382 10.5744 26.5719C12.4257 27.7056 14.5578 28.306 16.7328 28.3061Z" fill="#34A853"/>
<path d="M10.146 18.8834C9.65491 17.4366 9.65491 15.8698 10.146 14.423V11.4209H6.24943C5.42787 13.0444 5 14.8362 5 16.6532C5 18.4702 5.42787 20.262 6.24943 21.8855L10.146 18.8834Z" fill="#FBBC04"/>
<path d="M16.7328 9.61321C18.4061 9.58606 20.023 10.2139 21.2339 11.3611L24.5829 8.03527C22.4593 6.05447 19.646 4.96697 16.7328 5.00076C14.5578 5.00086 12.4257 5.60128 10.5744 6.73498C8.72317 7.86869 7.22564 9.49106 6.24902 11.421L10.1456 14.4231C11.0745 11.6621 13.6722 9.61321 16.7328 9.61321Z" fill="#EA4335"/>
</svg>
