<svg width="69" height="40" viewBox="0 0 69 40" fill="none" xmlns="http://www.w3.org/2000/svg">
<path d="M0 10C0 4.47715 4.47715 0 10 0H58.6852C64.208 0 68.6852 4.47715 68.6852 10V30C68.6852 35.5228 64.208 40 58.6852 40H10C4.47715 40 0 35.5228 0 30V10Z" fill="#F7F8FA"/>
<path d="M22.0533 34.9663V32.9734C22.065 32.8058 22.0408 32.6376 21.9825 32.4801C21.9241 32.3225 21.8329 32.1793 21.715 32.0598C21.597 31.9404 21.4549 31.8475 21.2983 31.7874C21.1416 31.7273 20.974 31.7014 20.8065 31.7113C20.5874 31.697 20.3684 31.7418 20.1725 31.8411C19.9765 31.9404 19.8107 32.0906 19.6924 32.2759C19.5846 32.0961 19.4303 31.9488 19.2459 31.8494C19.0615 31.7501 18.8538 31.7023 18.6446 31.7113C18.4622 31.7021 18.2806 31.7408 18.1178 31.8235C17.9549 31.9062 17.8165 32.0301 17.7161 32.1829V31.791H17.0264V34.9663H17.7227V33.2059C17.7077 33.0973 17.7168 32.9867 17.7495 32.882C17.7822 32.7773 17.8376 32.6812 17.9118 32.6006C17.986 32.5199 18.0771 32.4567 18.1785 32.4155C18.28 32.3743 18.3893 32.3561 18.4986 32.3623C18.9562 32.3623 19.1884 32.6612 19.1884 33.1993V34.9663H19.8847V33.2059C19.8708 33.0975 19.8807 32.9873 19.9139 32.8831C19.947 32.779 20.0024 32.6833 20.0764 32.6029C20.1503 32.5225 20.241 32.4593 20.3419 32.4178C20.4428 32.3762 20.5516 32.3573 20.6607 32.3623C21.1315 32.3623 21.357 32.6612 21.357 33.1993V34.9663H22.0533ZM32.3592 31.791H31.2318V30.8278H30.5355V31.791H29.8921V32.4221H30.5355V33.8702C30.5355 34.6075 30.8206 35.046 31.6363 35.046C31.9411 35.0469 32.2399 34.9617 32.4985 34.8002L32.2995 34.209C32.1146 34.3195 31.9047 34.3812 31.6894 34.3883C31.3445 34.3883 31.2318 34.1757 31.2318 33.8569V32.4221H32.3592V31.791ZM38.2417 31.7113C38.0735 31.7063 37.9071 31.7469 37.76 31.8287C37.613 31.9106 37.4907 32.0306 37.4061 32.1763V31.791H36.723V34.9663H37.4127V33.186C37.4127 32.6612 37.6381 32.3689 38.0892 32.3689C38.2367 32.3669 38.3831 32.394 38.5202 32.4486L38.7324 31.7976C38.5749 31.7412 38.4089 31.712 38.2417 31.7113ZM29.3484 32.0434C28.958 31.8109 28.5091 31.6956 28.0551 31.7113C27.2527 31.7113 26.7354 32.0966 26.7354 32.7276C26.7354 33.2458 27.1201 33.5647 27.8296 33.6643L28.1546 33.7108C28.5326 33.7638 28.7117 33.8635 28.7117 34.0429C28.7117 34.2887 28.4596 34.4282 27.9888 34.4282C27.6101 34.4391 27.2387 34.3221 26.9343 34.096L26.6094 34.6341C27.0111 34.9151 27.4924 35.0595 27.9822 35.046C28.8974 35.046 29.4279 34.6142 29.4279 34.0097C29.4279 33.4517 29.0101 33.1594 28.3204 33.0597L27.9955 33.0132C27.697 32.9734 27.4583 32.9137 27.4583 32.7011C27.4583 32.4686 27.6837 32.3291 28.0618 32.3291C28.4089 32.3343 28.749 32.428 29.0499 32.6014L29.3484 32.0434ZM47.8247 31.7113C47.6565 31.7063 47.4901 31.7469 47.343 31.8287C47.196 31.9106 47.0737 32.0306 46.9891 32.1763V31.791H46.306V34.9663H46.9957V33.186C46.9957 32.6612 47.2212 32.3689 47.6721 32.3689C47.8196 32.3669 47.9661 32.394 48.1032 32.4486L48.3155 31.7976C48.1579 31.7412 47.992 31.712 47.8247 31.7113ZM38.938 33.3786C38.9288 33.6023 38.9665 33.8254 39.0486 34.0336C39.1307 34.2419 39.2554 34.4306 39.4147 34.5876C39.574 34.7447 39.7643 34.8666 39.9735 34.9456C40.1827 35.0245 40.406 35.0587 40.6291 35.046C41.0432 35.0668 41.4501 34.9318 41.7698 34.6673L41.4382 34.1093C41.1998 34.2914 40.909 34.3915 40.6092 34.395C40.3508 34.3792 40.108 34.2653 39.9306 34.0765C39.7531 33.8876 39.6543 33.638 39.6543 33.3786C39.6543 33.1192 39.7531 32.8697 39.9306 32.6808C40.108 32.4919 40.3508 32.378 40.6092 32.3623C40.909 32.3657 41.1998 32.4659 41.4382 32.648L41.7698 32.0899C41.4501 31.8255 41.0432 31.6905 40.6291 31.7113C40.406 31.6986 40.1827 31.7328 39.9735 31.8117C39.7644 31.8907 39.574 32.0126 39.4147 32.1696C39.2555 32.3266 39.1307 32.5153 39.0486 32.7235C38.9665 32.9318 38.9288 33.1549 38.938 33.3786ZM45.3974 33.3786V31.791H44.7077V32.1763C44.59 32.0243 44.4376 31.9028 44.2634 31.8219C44.0892 31.741 43.8981 31.7031 43.7063 31.7113C43.2789 31.7323 42.876 31.9171 42.5809 32.2275C42.2859 32.5379 42.1213 32.9501 42.1213 33.3786C42.1213 33.8072 42.2859 34.2194 42.5809 34.5298C42.876 34.8402 43.2789 35.025 43.7063 35.046C43.8981 35.0542 44.0892 35.0163 44.2634 34.9354C44.4376 34.8544 44.59 34.7329 44.7077 34.5809V34.9663H45.3974V33.3786ZM42.8309 33.3786C42.8416 33.1912 42.9068 33.0111 43.0185 32.8604C43.1302 32.7097 43.2834 32.595 43.4594 32.5306C43.6354 32.4661 43.8263 32.4546 44.0087 32.4975C44.1911 32.5404 44.357 32.6359 44.4859 32.7721C44.6148 32.9083 44.701 33.0794 44.734 33.2641C44.7671 33.4488 44.7454 33.6392 44.6716 33.8118C44.5979 33.9843 44.4754 34.1315 44.3192 34.2351C44.163 34.3387 43.9799 34.3943 43.7925 34.395C43.6612 34.3967 43.5309 34.3712 43.4099 34.3201C43.2889 34.2689 43.1798 34.1932 43.0894 34.0977C42.9991 34.0023 42.9295 33.8891 42.885 33.7653C42.8405 33.6415 42.822 33.5098 42.8309 33.3786ZM34.508 31.7113C34.0778 31.734 33.6732 31.9226 33.3789 32.2377C33.0847 32.5527 32.9237 32.9696 32.9297 33.401C32.9357 33.8324 33.1082 34.2447 33.4112 34.5514C33.7141 34.8581 34.1238 35.0353 34.5544 35.046C35.0275 35.0626 35.4903 34.9042 35.8542 34.6009L35.516 34.0894C35.2541 34.2996 34.9297 34.4165 34.5941 34.4215C34.3662 34.4407 34.1398 34.3704 33.9628 34.2253C33.7858 34.0802 33.6721 33.8718 33.6458 33.6443H36.0001C36.0068 33.558 36.0134 33.4716 36.0134 33.3786C36.0068 32.3889 35.3966 31.7113 34.508 31.7113ZM34.4947 32.3291C34.703 32.325 34.9044 32.4038 35.0548 32.5483C35.2053 32.6927 35.2924 32.891 35.2971 33.0996H33.6524C33.6645 32.8865 33.7594 32.6865 33.9168 32.5425C34.0742 32.3985 34.2816 32.3219 34.4947 32.3291ZM51.7971 33.3786V30.5156H51.1074V32.1763C50.9897 32.0243 50.8373 31.9028 50.6631 31.8219C50.4889 31.741 50.2979 31.7031 50.106 31.7113C49.6786 31.7323 49.2757 31.9171 48.9806 32.2275C48.6856 32.5379 48.521 32.95 48.521 33.3786C48.521 33.8072 48.6856 34.2194 48.9806 34.5298C49.2757 34.8402 49.6786 35.025 50.106 35.046C50.2979 35.0542 50.4889 35.0163 50.6631 34.9354C50.8373 34.8544 50.9897 34.7329 51.1074 34.5809V34.9663H51.7971V33.3786ZM52.9469 34.5061C52.9897 34.5058 53.0321 34.5143 53.0716 34.5309C53.1096 34.5467 53.1442 34.5697 53.1736 34.5986C53.2027 34.6273 53.226 34.6615 53.2423 34.6991C53.2588 34.7378 53.2674 34.7794 53.2674 34.8215C53.2674 34.8636 53.2588 34.9053 53.2423 34.944C53.2259 34.9814 53.2026 35.0154 53.1736 35.0441C53.1441 35.073 53.1095 35.096 53.0716 35.1121C53.0322 35.129 52.9897 35.1376 52.9469 35.1373C52.8838 35.138 52.8219 35.12 52.7689 35.0856C52.716 35.0512 52.6743 35.0019 52.6492 34.944C52.6326 34.9053 52.6241 34.8636 52.6241 34.8215C52.6241 34.7794 52.6326 34.7378 52.6492 34.6991C52.6654 34.6615 52.6886 34.6274 52.7176 34.5986C52.7469 34.5695 52.7817 34.5465 52.8199 34.5309C52.8601 34.5142 52.9033 34.5058 52.9469 34.5061ZM52.9469 35.0677C52.9795 35.068 53.0119 35.0614 53.0419 35.0484C53.0707 35.0358 53.0969 35.018 53.1191 34.9958C53.1649 34.9494 53.1906 34.8869 53.1906 34.8217C53.1906 34.7565 53.1649 34.6939 53.1191 34.6476C53.0969 34.6255 53.0707 34.6077 53.0419 34.5955C53.0119 34.5827 52.9795 34.5762 52.9469 34.5765C52.9136 34.5762 52.8807 34.5827 52.85 34.5955C52.8207 34.6075 52.7941 34.6253 52.7716 34.6476C52.7258 34.6939 52.7001 34.7565 52.7001 34.8217C52.7001 34.8869 52.7258 34.9494 52.7716 34.9958C52.7941 35.0182 52.8207 35.036 52.85 35.0484C52.8806 35.0613 52.9136 35.0679 52.9469 35.0677ZM52.9654 34.6739C52.9964 34.6719 53.0272 34.6808 53.0523 34.6991C53.0624 34.7074 53.0703 34.7179 53.0756 34.7297C53.0809 34.7416 53.0834 34.7546 53.0828 34.7676C53.0832 34.7787 53.0812 34.7898 53.077 34.8001C53.0728 34.8104 53.0665 34.8197 53.0585 34.8275C53.0393 34.8445 53.015 34.8548 52.9893 34.8565L53.0851 34.9671H53.0102L52.9214 34.8573H52.8928V34.9671H52.8303V34.6739H52.9654ZM52.8928 34.7289V34.807H52.9647C52.9785 34.8077 52.9922 34.8043 53.0041 34.7973C53.0089 34.7941 53.0128 34.7896 53.0154 34.7844C53.0179 34.7792 53.0191 34.7734 53.0187 34.7676C53.019 34.7619 53.0178 34.7562 53.0153 34.7511C53.0127 34.746 53.0088 34.7416 53.0041 34.7385C52.9921 34.7315 52.9785 34.7282 52.9647 34.7289H52.8928ZM49.2306 33.3786C49.2413 33.1912 49.3066 33.0111 49.4183 32.8604C49.53 32.7097 49.6832 32.5951 49.8592 32.5306C50.0351 32.4662 50.2261 32.4547 50.4085 32.4976C50.5909 32.5405 50.7567 32.636 50.8856 32.7722C51.0145 32.9084 51.1007 33.0795 51.1337 33.2642C51.1667 33.4489 51.145 33.6393 51.0713 33.8118C50.9976 33.9844 50.8751 34.1315 50.7189 34.2351C50.5627 34.3387 50.3796 34.3943 50.1922 34.395C50.0609 34.3967 49.9306 34.3712 49.8096 34.3201C49.6886 34.2689 49.5795 34.1932 49.4892 34.0977C49.3988 34.0022 49.3292 33.889 49.2847 33.7653C49.2402 33.6415 49.2218 33.5098 49.2306 33.3786ZM25.9396 33.3786V31.791H25.2499V32.1763C25.1321 32.0243 24.9798 31.9028 24.8056 31.8219C24.6313 31.741 24.4403 31.7031 24.2484 31.7113C23.8211 31.7323 23.4181 31.9171 23.1231 32.2275C22.828 32.5379 22.6635 32.9501 22.6635 33.3786C22.6635 33.8072 22.828 34.2194 23.1231 34.5298C23.4181 34.8402 23.8211 35.025 24.2484 35.046C24.4403 35.0542 24.6313 35.0163 24.8056 34.9354C24.9798 34.8544 25.1321 34.7329 25.2499 34.5809V34.9663H25.9396V33.3786ZM23.3731 33.3786C23.3838 33.1912 23.449 33.0111 23.5607 32.8604C23.6724 32.7097 23.8257 32.5951 24.0016 32.5306C24.1776 32.4662 24.3685 32.4547 24.5509 32.4976C24.7333 32.5405 24.8992 32.636 25.0281 32.7722C25.1569 32.9084 25.2432 33.0795 25.2762 33.2642C25.3092 33.4489 25.2875 33.6393 25.2138 33.8118C25.14 33.9844 25.0175 34.1315 24.8613 34.2351C24.7051 34.3388 24.522 34.3943 24.3347 34.395C24.2033 34.3967 24.0731 34.3712 23.9521 34.3201C23.8311 34.2689 23.722 34.1932 23.6316 34.0977C23.5413 34.0022 23.4717 33.889 23.4272 33.7653C23.3827 33.6415 23.3643 33.5098 23.3731 33.3786Z" fill="#261C15"/>
<path d="M39.5657 7.59082H29.1191V26.3946H39.5657V7.59082Z" fill="#FF5F00"/>
<path d="M29.7823 16.9929C29.7807 15.1819 30.1904 13.3943 30.9804 11.7654C31.7704 10.1365 32.92 8.70902 34.3423 7.59095C32.581 6.20429 30.4658 5.34194 28.2384 5.10248C26.011 4.86301 23.7613 5.2561 21.7464 6.23679C19.7315 7.21749 18.0327 8.74623 16.8442 10.6483C15.6557 12.5503 15.0254 14.749 15.0254 16.9929C15.0254 19.2368 15.6557 21.4354 16.8442 23.3375C18.0327 25.2395 19.7315 26.7683 21.7464 27.7489C23.7613 28.7296 26.011 29.1227 28.2384 28.8833C30.4658 28.6438 32.581 27.7815 34.3423 26.3948C32.9201 25.2767 31.7704 23.8492 30.9804 22.2203C30.1904 20.5914 29.7807 18.8038 29.7823 16.9929Z" fill="#EB001B"/>
<path d="M53.6591 16.9919C53.6591 19.2357 53.029 21.4344 51.8405 23.3364C50.6521 25.2385 48.9533 26.7672 46.9384 27.7479C44.9236 28.7287 42.6739 29.1217 40.4465 28.8823C38.2191 28.6428 36.104 27.7805 34.3428 26.3938C35.7638 25.2746 36.9125 23.8469 37.7024 22.2182C38.4923 20.5896 38.9027 18.8025 38.9027 16.9919C38.9027 15.1812 38.4923 13.3942 37.7024 11.7656C36.9125 10.1369 35.7638 8.70917 34.3428 7.58997C36.104 6.20331 38.2191 5.34096 40.4465 5.1015C42.6739 4.86204 44.9236 5.25513 46.9384 6.23583C48.9533 7.21654 50.6521 8.74529 51.8405 10.6474C53.029 12.5494 53.6591 14.748 53.6591 16.9919Z" fill="#F79E1B"/>
<path d="M52.519 24.4038V24.0195H52.674V23.9412H52.2793V24.0195H52.4343V24.4038H52.519ZM53.2853 24.4038V23.9404H53.1643L53.0251 24.2592L52.8859 23.9404H52.7649V24.4038H52.8503V24.0543L52.9808 24.3556H53.0694L53.1999 24.0535V24.4038H53.2853Z" fill="#F79E1B"/>
</svg>
