<svg width="67" height="40" viewBox="0 0 67 40" fill="none" xmlns="http://www.w3.org/2000/svg">
<path d="M0.0849609 10C0.0849609 4.47715 4.56211 0 10.085 0H56.585C62.1078 0 66.585 4.47715 66.585 10V30C66.585 35.5228 62.1078 40 56.585 40H10.085C4.56212 40 0.0849609 35.5228 0.0849609 30V10Z" fill="#F7F8FA"/>
<path d="M51.8049 13.2637H42.8525C43.374 16.2188 46.2423 19.0001 49.3712 19.0001H56.4983C56.5853 18.7394 56.5852 18.3048 56.5852 18.044C56.5852 15.4366 54.4123 13.2637 51.8049 13.2637Z" fill="url(#paint0_linear_2711_8651)"/>
<path d="M43.6348 19.5215V26.7355H47.9806V22.9112H51.8049C53.8908 22.9112 55.7161 21.4336 56.3245 19.5215H43.6348Z" fill="#4FAD50"/>
<path d="M28.3369 13.2637V26.6487H32.1612C32.1612 26.6487 33.1173 26.6487 33.6388 25.6926C36.2463 20.5646 37.0285 19.0001 37.0285 19.0001H37.55V26.6487H41.8958V13.2637H38.0715C38.0715 13.2637 37.1154 13.3506 36.5939 14.2198C34.421 18.6525 33.2042 20.9123 33.2042 20.9123H32.6827V13.2637H28.3369Z" fill="#4FAD50"/>
<path d="M10.085 26.7356V13.3506H14.4308C14.4308 13.3506 15.6476 13.3506 16.3429 15.2627C18.0812 20.3039 18.2551 20.9992 18.2551 20.9992C18.2551 20.9992 18.6027 19.7824 20.1672 15.2627C20.8625 13.3506 22.0794 13.3506 22.0794 13.3506H26.4252V26.7356H22.0794V19.5216H21.5579L19.1242 26.7356H17.2121L14.7784 19.5216H14.2569V26.7356H10.085Z" fill="#4FAD50"/>
<defs>
<linearGradient id="paint0_linear_2711_8651" x1="42.8371" y1="16.173" x2="56.5545" y2="16.173" gradientUnits="userSpaceOnUse">
<stop stop-color="#27B1E6"/>
<stop offset="1" stop-color="#148ACA"/>
</linearGradient>
</defs>
</svg>
