<svg width="36" height="42" viewBox="0 0 36 42" fill="none" xmlns="http://www.w3.org/2000/svg">
<g clip-path="url(#clip0_3219_35339)">
<path d="M4.39062 40.1987V0.943848H22.4107L31.6326 10.1575V40.1987H4.39062Z" fill="white"/>
<path d="M22.0225 1.88741L30.691 10.548V39.2534H5.33691V1.88658H22.0225V1.88741ZM22.8041 -0.00146484H3.44922V41.1414H32.5782V9.76445L22.8041 -0.00146484Z" fill="black"/>
<path d="M31.6326 40.1992H4.39062V0.944336H22.4107L22.6243 1.15792V9.95267H31.4261L31.6326 10.158V40.1992Z" fill="white"/>
<path d="M21.6795 1.8884V10.8964H30.6875V39.2548H5.33336V1.88805H21.6791L21.6795 1.8884ZM22.8001 0H3.44531V41.1429H32.5743V9.76592L31.8156 9.00787H23.5663V0.766311L22.8001 0Z" fill="black"/>
<path d="M28.7585 8.46786H24.1953V3.85596L28.7585 8.3062V8.46786Z" fill="black"/>
<path d="M25.142 6.09591L26.6064 7.52422H25.142V6.09591ZM24.5517 2.88281H23.2539V9.41227H29.7046V7.90867L24.5517 2.88281Z" fill="black"/>
<path d="M35.0812 31.6839H0.9375V17.9L2.67769 16.1606V18.3496H33.3418V16.1606L35.0812 17.9V31.6839Z" fill="#ED1C24"/>
<path d="M34.1109 18.0121L34.3171 18.2183V30.9177H1.70697V18.2183L1.91313 18.0121V19.1169H34.1102V18.0121H34.1109ZM32.5763 14.3086V17.5828H3.4461V14.3086L0.171875 17.5828V32.4512H35.85V17.5828L32.5763 14.3086Z" fill="#ED1C24"/>
<path d="M5.51562 30.1709V20.353H9.11047C9.64415 20.353 10.1527 20.4084 10.636 20.5192C11.1193 20.6199 11.5423 20.8011 11.9048 21.0629C12.2673 21.3147 12.5543 21.652 12.7657 22.0749C12.9873 22.4878 13.098 23.0013 13.098 23.6156C13.098 24.2197 12.9873 24.7383 12.7657 25.1713C12.5543 25.6043 12.2673 25.9618 11.9048 26.2437C11.5423 26.5156 11.1244 26.722 10.6511 26.863C10.1778 26.9939 9.68443 27.0594 9.17088 27.0594H8.11358V30.1709H5.51562ZM8.11358 25.0052H9.05005C9.5636 25.0052 9.94121 24.8843 10.1829 24.6427C10.4346 24.401 10.5605 24.0586 10.5605 23.6156C10.5605 23.1725 10.4245 22.8604 10.1527 22.6791C9.88079 22.4978 9.49311 22.4072 8.98963 22.4072H8.11358V25.0052Z" fill="white"/>
<path d="M14.7031 30.1709V20.353H17.6032C18.3483 20.353 19.028 20.4437 19.6423 20.6249C20.2666 20.8062 20.8003 21.0931 21.2433 21.4859C21.6864 21.8786 22.0287 22.382 22.2704 22.9963C22.5221 23.6105 22.648 24.3506 22.648 25.2166C22.648 26.0826 22.5272 26.8278 22.2855 27.4521C22.0438 28.0764 21.7015 28.5899 21.2584 28.9927C20.8254 29.3955 20.3068 29.6926 19.7027 29.8839C19.1086 30.0752 18.4591 30.1709 17.7542 30.1709H14.7031ZM17.3011 28.0865H17.4521C17.8046 28.0865 18.1368 28.0462 18.449 27.9656C18.7612 27.875 19.028 27.724 19.2495 27.5125C19.4811 27.301 19.6624 27.009 19.7933 26.6364C19.9242 26.2639 19.9897 25.7906 19.9897 25.2166C19.9897 24.6427 19.9242 24.1744 19.7933 23.8119C19.6624 23.4494 19.4811 23.1675 19.2495 22.9661C19.028 22.7647 18.7612 22.6288 18.449 22.5583C18.1368 22.4777 17.8046 22.4374 17.4521 22.4374H17.3011V28.0865Z" fill="white"/>
<path d="M24.3945 30.1709V20.353H30.7988V22.5281H26.9925V24.401H30.255V26.576H26.9925V30.1709H24.3945Z" fill="white"/>
</g>
<defs>
<clipPath id="clip0_3219_35339">
<rect width="36" height="41.1429" fill="white"/>
</clipPath>
</defs>
</svg>
