<svg width="25" height="24" viewBox="0 0 25 24" fill="none" xmlns="http://www.w3.org/2000/svg">
<path d="M7.5 12V4M7.5 12H12.5M7.5 12H3.5M7.5 4H3.8676C3.6489 4 3.45559 4.14212 3.39036 4.35086L1.20286 11.3509C1.10224 11.6728 1.34278 12 1.6801 12H3.5M7.5 4H12.5M17.5 12V4M17.5 12H21.5M17.5 12H16.5M17.5 4H21.1324C21.3511 4 21.5444 4.14212 21.6096 4.35086L23.7971 11.3509C23.8978 11.6728 23.6572 12 23.3199 12H21.5M17.5 4H12.5M12.5 12V4M12.5 12H16.5M3.5 12V20C3.5 20.2761 3.72386 20.5 4 20.5H16.5M21.5 12V20C21.5 20.2761 21.2761 20.5 21 20.5H16.5M16.5 20.5V12" stroke="#FF6C00" stroke-width="2"/>
</svg>
