<svg width="32" height="33" viewBox="0 0 32 33" fill="none" xmlns="http://www.w3.org/2000/svg">
<rect width="32" height="32" transform="translate(0 0.5)" fill="white"/>
<path d="M28 9.32652C27.1429 9.69387 26.1633 9.93878 25.1837 10.0612C26.1633 9.44898 27.0204 8.46939 27.3878 7.36735C26.4082 7.9796 25.4286 8.34694 24.2041 8.59184C23.3469 7.61225 22 7 20.6531 7C17.9592 7 15.7551 9.20408 15.7551 11.898C15.7551 12.2653 15.7551 12.6326 15.8776 13C11.8367 12.7551 8.16326 10.7959 5.71428 7.85714C5.34693 8.59183 5.10203 9.44898 5.10203 10.3061C5.10203 12.0204 5.95918 13.4898 7.30612 14.3469C6.44898 14.3469 5.71428 14.102 5.10203 13.7347C5.10203 16.0612 6.81632 18.1429 9.0204 18.5102C8.65305 18.6327 8.16327 18.6327 7.67347 18.6327C7.30612 18.6327 7.06122 18.6327 6.69388 18.5102C7.30612 20.4694 9.14286 21.9388 11.3469 21.9388C9.63266 23.2857 7.55102 24.0204 5.22449 24.0204C4.85714 24.0204 4.4898 24.0204 4 23.898C6.20408 25.2449 8.77551 26.1021 11.5918 26.1021C20.6531 26.1021 25.551 18.6327 25.551 12.1429V11.5306C26.5306 11.1633 27.3878 10.3061 28 9.32652Z" fill="#55ACE3"/>
</svg>
