<svg width="74" height="40" viewBox="0 0 74 40" fill="none" xmlns="http://www.w3.org/2000/svg">
<path d="M0.685547 10C0.685547 4.47715 5.1627 0 10.6855 0H63.0855C68.6084 0 73.0855 4.47715 73.0855 10V30C73.0855 35.5228 68.6084 40 63.0855 40H10.6856C5.16271 40 0.685547 35.5228 0.685547 30V10Z" fill="#F7F8FA"/>
<path d="M59.5613 12.1855H56.2672C55.2713 12.1855 54.5052 12.492 54.0455 13.4879L47.7637 27.8136H52.2069C52.2069 27.8136 52.973 25.8984 53.1262 25.4388C53.5859 25.4388 57.9526 25.4388 58.5654 25.4388C58.7186 25.975 59.1017 27.737 59.1017 27.737H63.0853L59.5613 12.1855ZM54.352 22.2212C54.735 21.3019 56.0374 17.8546 56.0374 17.8546C56.0374 17.9312 56.4204 16.9353 56.5736 16.399L56.88 17.7779C56.88 17.7779 57.7227 21.5317 57.876 22.2978H54.352V22.2212Z" fill="#3362AB"/>
<path d="M48.0704 22.6812C48.0704 25.8987 45.1592 28.0438 40.6394 28.0438C38.7241 28.0438 36.8856 27.6607 35.8896 27.2011L36.5025 23.6771L37.0388 23.9069C38.4177 24.5198 39.337 24.7496 41.0224 24.7496C42.2481 24.7496 43.5505 24.29 43.5505 23.2175C43.5505 22.528 43.0142 22.0683 41.3288 21.3023C39.7201 20.5362 37.575 19.3104 37.575 17.0888C37.575 14.0245 40.5627 11.9561 44.7762 11.9561C46.385 11.9561 47.7639 12.2625 48.6066 12.6455L47.9937 16.0163L47.6873 15.7099C46.9212 15.4034 45.9253 15.097 44.4698 15.097C42.861 15.1736 42.0949 15.8631 42.0949 16.4759C42.0949 17.1654 43.0142 17.7017 44.4698 18.3911C46.9212 19.5403 48.0704 20.8426 48.0704 22.6812Z" fill="#3362AB"/>
<path d="M10.6855 12.3396L10.7622 12.0332H17.3505C18.2698 12.0332 18.9592 12.3396 19.1891 13.3355L20.6446 20.2303C19.1891 16.5531 15.8183 13.5654 10.6855 12.3396Z" fill="#F9B50B"/>
<path d="M29.9146 12.186L23.2497 27.7375H18.7298L14.8994 14.7141C17.6573 16.476 19.9556 19.2339 20.7982 21.1491L21.2579 22.7579L25.3947 12.1094H29.9146V12.186Z" fill="#3362AB"/>
<path d="M31.6764 12.1094H35.8899L33.2086 27.7375H28.9951L31.6764 12.1094Z" fill="#3362AB"/>
</svg>
