<svg width="33" height="33" viewBox="0 0 33 33" fill="none" xmlns="http://www.w3.org/2000/svg">
<path d="M30.0636 23.0013C30.0636 22.8906 29.9529 22.8906 29.9529 22.7799C29.5101 21.8944 28.5139 20.7874 27.1855 19.5697C26.5213 19.0162 26.1892 18.5734 25.9678 18.352C25.6357 17.9093 25.6357 17.5772 25.7464 17.1344C25.8571 16.8023 26.2999 16.2488 27.0748 15.2525C27.5176 14.699 27.739 14.367 28.0711 14.0349C29.7315 11.8209 30.5064 10.3818 30.285 9.71766L30.1743 9.60697C30.0636 9.49628 29.9529 9.38558 29.7315 9.38558C29.5101 9.27488 29.178 9.27488 28.8459 9.38558H24.6395C24.5288 9.38558 24.5287 9.38558 24.3074 9.38558C24.1967 9.38558 24.086 9.38558 24.086 9.38558H23.9753H23.8646L23.7539 9.49627C23.6432 9.60697 23.6432 9.60696 23.6432 9.71766C23.2004 10.9353 22.6469 11.9316 22.0934 13.0386C21.7613 13.5921 21.4292 14.1456 21.0971 14.5883C20.765 15.0311 20.5436 15.3632 20.3222 15.5846C20.1009 15.806 19.8795 15.9167 19.7688 16.1381C19.6581 16.2488 19.4367 16.3595 19.4367 16.2488C19.326 16.2488 19.2153 16.2488 19.2153 16.1381C19.1046 16.0274 18.9939 15.9167 18.8832 15.806C18.7725 15.6953 18.7725 15.4739 18.6618 15.2525C18.6618 15.0311 18.6618 14.8097 18.6618 14.699C18.6618 14.5883 18.6618 14.2563 18.6618 14.0349C18.6618 13.7028 18.6618 13.4814 18.6618 13.3707C18.6618 13.0386 18.6618 12.5958 18.6618 12.153C18.6618 11.7102 18.6618 11.3781 18.6618 11.1567C18.6618 10.9353 18.6618 10.6032 18.6618 10.3818C18.6618 10.0498 18.6618 9.82836 18.6618 9.71766C18.6618 9.60696 18.5511 9.38557 18.5511 9.27488C18.4404 9.16418 18.3297 9.05348 18.219 8.94278C18.1083 8.83208 17.8869 8.83209 17.7762 8.72139C17.2227 8.61069 16.5586 8.5 15.7837 8.5C14.0125 8.5 12.7949 8.6107 12.3521 8.8321C12.1307 8.94279 11.9093 9.05348 11.7986 9.27488C11.5772 9.49627 11.5772 9.60697 11.6879 9.60697C12.2414 9.71767 12.6842 9.93905 12.9056 10.2711L13.0163 10.4926C13.127 10.6033 13.1269 10.8246 13.2376 11.1567C13.3483 11.4888 13.3483 11.8209 13.3483 12.2637C13.3483 12.9279 13.3483 13.5921 13.3483 14.0349C13.3483 14.5883 13.2376 14.9204 13.2376 15.2525C13.2376 15.5846 13.127 15.806 13.0163 15.9167C12.9056 16.1381 12.9055 16.2488 12.7948 16.2488C12.7948 16.2488 12.7948 16.3595 12.6841 16.3595C12.5734 16.3595 12.4628 16.4702 12.2414 16.4702C12.1307 16.4702 11.9093 16.3595 11.7986 16.2488C11.5772 16.1381 11.3558 15.9167 11.2451 15.6953C11.0237 15.4739 10.8023 15.1418 10.5809 14.699C10.3595 14.2562 10.0274 13.8135 9.80601 13.1493L9.58463 12.7065C9.47394 12.4851 9.25254 12.0423 9.03115 11.4888C8.80975 10.9353 8.58835 10.4926 8.36696 9.93907C8.25626 9.71767 8.14558 9.60697 8.03488 9.49627H7.92418C7.92418 9.49627 7.81346 9.38558 7.70277 9.38558C7.59207 9.38558 7.48139 9.27488 7.37069 9.27488H3.38558C2.94279 9.27488 2.7214 9.38557 2.6107 9.49627L2.5 9.60697C2.5 9.60697 2.5 9.71767 2.5 9.82836C2.5 9.93906 2.50001 10.0498 2.6107 10.2711C3.16419 11.5995 3.82837 12.9279 4.49255 14.2563C5.15674 15.4739 5.82093 16.5809 6.26372 17.3558C6.8172 18.1307 7.25998 18.9055 7.81347 19.5697C8.36696 20.2339 8.69904 20.6767 8.80974 20.8981C9.03113 21.1195 9.14182 21.2302 9.25252 21.3409L9.58463 21.673C9.80603 21.8944 10.1381 22.2265 10.5809 22.5585C11.0237 22.8906 11.5772 23.2227 12.1307 23.5548C12.6841 23.8869 13.3483 24.1083 14.0125 24.3297C14.7874 24.5511 15.4516 24.6618 16.1158 24.5511H17.7762C18.1083 24.5511 18.3297 24.4404 18.5511 24.219L18.6618 24.1083C18.6618 23.9976 18.7725 23.9976 18.7725 23.8869C18.7725 23.7762 18.7725 23.6655 18.7725 23.4441C18.7725 23.0013 18.7725 22.6692 18.8832 22.3372C18.9939 22.0051 18.9939 21.7837 19.1046 21.5623C19.2153 21.3409 19.326 21.2302 19.4367 21.1195C19.5474 21.0088 19.6581 20.8981 19.6581 20.8981H19.7688C19.9902 20.7874 20.3223 20.8981 20.5437 21.1195C20.8757 21.3409 21.2078 21.673 21.4292 22.0051C21.6506 22.3372 21.9827 22.6692 22.4255 23.112C22.8683 23.5548 23.2004 23.8869 23.4218 23.9976L23.7539 24.219C23.9753 24.3297 24.1967 24.4404 24.5288 24.5511C24.8609 24.6618 25.0822 24.6618 25.3036 24.6618L29.0674 24.5511C29.3994 24.5511 29.7315 24.4404 29.9529 24.3297C30.1743 24.219 30.285 24.1083 30.285 23.8869C30.285 23.7762 30.285 23.5548 30.285 23.4441C30.0636 23.2227 30.0636 23.112 30.0636 23.0013Z" fill="#7294C7"/>
</svg>
